<svg id="visual" viewBox="0 0 960 540" width="960" height="540" xmlns="http://www.w3.org/2000/svg" xmlns:xlink="http://www.w3.org/1999/xlink" version="1.1"><rect x="0" y="0" width="960" height="540" fill="#001220"></rect><path d="M0 329L22.8 337.8C45.7 346.7 91.3 364.3 137 375C182.7 385.7 228.3 389.3 274 385.7C319.7 382 365.3 371 411.2 358.2C457 345.3 503 330.7 548.8 331.3C594.7 332 640.3 348 686 353.5C731.7 359 777.3 354 823 348C868.7 342 914.3 335 937.2 331.5L960 328L960 541L937.2 541C914.3 541 868.7 541 823 541C777.3 541 731.7 541 686 541C640.3 541 594.7 541 548.8 541C503 541 457 541 411.2 541C365.3 541 319.7 541 274 541C228.3 541 182.7 541 137 541C91.3 541 45.7 541 22.8 541L0 541Z" fill="#fa7268"></path><path d="M0 365L22.8 374C45.7 383 91.3 401 137 408C182.7 415 228.3 411 274 404.2C319.7 397.3 365.3 387.7 411.2 388.2C457 388.7 503 399.3 548.8 406.2C594.7 413 640.3 416 686 417.5C731.7 419 777.3 419 823 419.3C868.7 419.7 914.3 420.3 937.2 420.7L960 421L960 541L937.2 541C914.3 541 868.7 541 823 541C777.3 541 731.7 541 686 541C640.3 541 594.7 541 548.8 541C503 541 457 541 411.2 541C365.3 541 319.7 541 274 541C228.3 541 182.7 541 137 541C91.3 541 45.7 541 22.8 541L0 541Z" fill="#ef5f67"></path><path d="M0 460L22.8 458.8C45.7 457.7 91.3 455.3 137 449.3C182.7 443.3 228.3 433.7 274 424.8C319.7 416 365.3 408 411.2 404.2C457 400.3 503 400.7 548.8 401.7C594.7 402.7 640.3 404.3 686 414C731.7 423.7 777.3 441.3 823 443.8C868.7 446.3 914.3 433.7 937.2 427.3L960 421L960 541L937.2 541C914.3 541 868.7 541 823 541C777.3 541 731.7 541 686 541C640.3 541 594.7 541 548.8 541C503 541 457 541 411.2 541C365.3 541 319.7 541 274 541C228.3 541 182.7 541 137 541C91.3 541 45.7 541 22.8 541L0 541Z" fill="#e34c67"></path><path d="M0 487L22.8 482.7C45.7 478.3 91.3 469.7 137 464.3C182.7 459 228.3 457 274 459.2C319.7 461.3 365.3 467.7 411.2 468.8C457 470 503 466 548.8 463C594.7 460 640.3 458 686 458.7C731.7 459.3 777.3 462.7 823 463.7C868.7 464.7 914.3 463.3 937.2 462.7L960 462L960 541L937.2 541C914.3 541 868.7 541 823 541C777.3 541 731.7 541 686 541C640.3 541 594.7 541 548.8 541C503 541 457 541 411.2 541C365.3 541 319.7 541 274 541C228.3 541 182.7 541 137 541C91.3 541 45.7 541 22.8 541L0 541Z" fill="#d53867"></path><path d="M0 480L22.8 481.7C45.7 483.3 91.3 486.7 137 490.2C182.7 493.7 228.3 497.3 274 495C319.7 492.7 365.3 484.3 411.2 481.3C457 478.3 503 480.7 548.8 481C594.7 481.3 640.3 479.7 686 482.2C731.7 484.7 777.3 491.3 823 494.5C868.7 497.7 914.3 497.3 937.2 497.2L960 497L960 541L937.2 541C914.3 541 868.7 541 823 541C777.3 541 731.7 541 686 541C640.3 541 594.7 541 548.8 541C503 541 457 541 411.2 541C365.3 541 319.7 541 274 541C228.3 541 182.7 541 137 541C91.3 541 45.7 541 22.8 541L0 541Z" fill="#c62368"></path></svg>